<?xml version="1.0" encoding="utf-8"?>
<svg width="256" height="247" viewBox="0 0 256 247" xmlns="http://www.w3.org/2000/svg">
<rect id="frame" x="0" y="0" width="256" height="247" fill="#ffffbf" stroke="none" stroke-width="0"/>

<!-- Association APPARTENIR -->
<g class="page_0_R2cHn2mn diagram_page" visibility="visible">
	<line x1="55" y1="43" x2="55" y2="153" stroke="#f46d43" stroke-width="2"/>
	<text x="60" y="94" fill="#4575b4" font-family="Verdana" font-size="12">0,N</text>
	<line x1="190" y1="153" x2="55" y2="153" stroke="#f46d43" stroke-width="2"/>
	<text x="107" y="170" fill="#4575b4" font-family="Verdana" font-size="12">0,1</text>
	<g>
		<path d="M87 128 a14 14 90 0 1 14 14 V153 h-92 V142 a14 14 90 0 1 14 -14" fill="#fdae61" stroke="#fdae61" stroke-width="0"/>
		<path d="M101 153 v11 a14 14 90 0 1 -14 14 H23 a14 14 90 0 1 -14 -14 V153 H92" fill="#fee090" stroke="#fee090" stroke-width="0"/>
		<rect x="9" y="128" width="92" height="50" fill="none" rx="14" stroke="#f46d43" stroke-width="2"/>
		<line x1="9" y1="153" x2="101" y2="153" stroke="#f46d43" stroke-width="1"/>
		<text x="16" y="145.75" fill="#000" font-family="Verdana" font-size="12">APPARTENIR</text>
	</g>
</g>

<!-- Entity LIGUE -->
<g class="page_0_R2cHn2mn diagram_page" visibility="visible">
	<g>
		<rect x="17" y="9" width="76" height="25" fill="#abd9e9" stroke="#abd9e9" stroke-width="0" opacity="1"/>
		<rect x="17" y="34" width="76" height="43" fill="#e0f3f8" stroke="#e0f3f8" stroke-width="0" opacity="1"/>
		<rect x="17" y="9" width="76" height="68" fill="none" stroke="#74add1" stroke-width="2" opacity="1"/>
		<line x1="17" y1="34" x2="93" y2="34" stroke="#74add1" stroke-width="1"/>
	</g>
	<text x="36" y="26.75" fill="#000" font-family="Verdana" font-size="12">LIGUE</text>
	<text x="22" y="51.8" fill="#000" font-family="Verdana" font-size="12">ID Ligue</text>
	<line x1="22" y1="54" x2="74" y2="54" stroke="#000" stroke-width="1"/>
	<text x="22" y="68.8" fill="#000" font-family="Verdana" font-size="12">NOM Ligue</text>
</g>

<!-- Entity EMPLOYE -->
<g class="page_0_R2cHn2mn diagram_page" visibility="visible">
	<g>
		<rect x="133" y="68" width="114" height="25" fill="#abd9e9" stroke="#abd9e9" stroke-width="0" opacity="1"/>
		<rect x="133" y="93" width="114" height="145" fill="#e0f3f8" stroke="#e0f3f8" stroke-width="0" opacity="1"/>
		<rect x="133" y="68" width="114" height="170" fill="none" stroke="#74add1" stroke-width="2" opacity="1"/>
		<line x1="133" y1="93" x2="247" y2="93" stroke="#74add1" stroke-width="1"/>
	</g>
	<text x="162" y="85.75" fill="#000" font-family="Verdana" font-size="12">EMPLOYE</text>
	<text x="138" y="110.8" fill="#000" font-family="Verdana" font-size="12">ID Employé</text>
	<line x1="138" y1="113" x2="209" y2="113" stroke="#000" stroke-width="1"/>
	<text x="138" y="127.8" fill="#000" font-family="Verdana" font-size="12">NOM Employé</text>
	<text x="138" y="144.8" fill="#000" font-family="Verdana" font-size="12">prénom Employé</text>
	<text x="138" y="161.8" fill="#000" font-family="Verdana" font-size="12">mail Employé</text>
	<text x="138" y="178.8" fill="#000" font-family="Verdana" font-size="12">MDP Employé</text>
	<text x="138" y="195.8" fill="#000" font-family="Verdana" font-size="12">Date arrivée</text>
	<text x="138" y="212.8" fill="#000" font-family="Verdana" font-size="12">Date départ</text>
	<text x="138" y="229.8" fill="#000" font-family="Verdana" font-size="12">habilitation</text>
</g>
</svg>